<svg xmlns="http://www.w3.org/2000/svg" width="166" height="52" viewBox="0 0 166 52" fill="none"><g clip-path="url(#clip0_5378_2474)"><path d="M18.2132 42.864C14.9492 42.864 12.0692 42.192 9.57321 40.848C7.10921 39.472 5.17321 37.536 3.76521 35.04C2.38921 32.512 1.70121 29.536 1.70121 26.112C1.70121 22.784 2.38921 19.872 3.76521 17.376C5.14121 14.88 7.12521 12.944 9.71721 11.568C12.3412 10.16 15.5092 9.456 19.2212 9.456C20.9172 9.456 22.4852 9.648 23.9252 10.032C25.3972 10.416 26.7892 10.976 28.1012 11.712L28.2932 18.432H27.8132L25.1252 13.44C24.7092 12.64 24.3252 12.064 23.9732 11.712C23.6212 11.36 23.1732 11.088 22.6292 10.896C22.1172 10.736 21.6372 10.624 21.1892 10.56C20.7732 10.464 20.2132 10.416 19.5092 10.416C17.5252 10.416 15.7652 10.944 14.2292 12C12.7252 13.056 11.5572 14.736 10.7252 17.04C9.89321 19.344 9.47721 22.368 9.47721 26.112C9.47721 29.824 9.86121 32.848 10.6292 35.184C11.4292 37.52 12.5492 39.232 13.9892 40.32C15.4292 41.376 17.0932 41.904 18.9812 41.904C19.2692 41.904 19.5412 41.888 19.7972 41.856C20.0852 41.792 20.3572 41.728 20.6132 41.664C21.2212 41.568 21.6212 41.312 21.8132 40.896C22.0052 40.48 22.1012 39.984 22.1012 39.408V29.904C22.1012 28.656 21.4612 27.888 20.1812 27.6L17.9732 27.024V26.544H31.5092V27.024L30.8372 27.216C29.6212 27.6 29.0132 28.4 29.0132 29.616V40.032C27.3492 40.96 25.6532 41.664 23.9252 42.144C22.2292 42.624 20.3252 42.864 18.2132 42.864ZM32.104 42V41.52L32.68 41.328C33.832 40.944 34.408 40.144 34.408 38.928V13.248C34.408 12.608 34.28 12.128 34.024 11.808C33.768 11.456 33.32 11.2 32.68 11.04L32.056 10.896V10.416L40.84 8.352L41.416 8.784L41.224 15.504V31.92C41.224 33.104 41.224 34.288 41.224 35.472C41.256 36.624 41.272 37.776 41.272 38.928C41.272 39.568 41.4 40.096 41.656 40.512C41.912 40.896 42.344 41.184 42.952 41.376L43.576 41.52V42H32.104ZM56.8783 42.72C54.4463 42.72 52.3343 42.224 50.5423 41.232C48.7503 40.208 47.3583 38.768 46.3663 36.912C45.4063 35.056 44.9263 32.88 44.9263 30.384C44.9263 27.888 45.4383 25.728 46.4623 23.904C47.5183 22.08 48.9423 20.672 50.7343 19.68C52.5583 18.688 54.6063 18.192 56.8783 18.192C59.1503 18.192 61.1823 18.688 62.9743 19.68C64.7663 20.64 66.1743 22.032 67.1983 23.856C68.2543 25.68 68.7823 27.856 68.7823 30.384C68.7823 32.912 68.2863 35.104 67.2943 36.96C66.3343 38.784 64.9583 40.208 63.1663 41.232C61.4063 42.224 59.3103 42.72 56.8783 42.72ZM56.8783 41.76C57.9983 41.76 58.8943 41.44 59.5663 40.8C60.2383 40.16 60.7183 39.024 61.0063 37.392C61.3263 35.76 61.4863 33.456 61.4863 30.48C61.4863 27.472 61.3263 25.152 61.0063 23.52C60.7183 21.888 60.2383 20.752 59.5663 20.112C58.8943 19.472 57.9983 19.152 56.8783 19.152C55.7583 19.152 54.8463 19.472 54.1423 20.112C53.4703 20.752 52.9743 21.888 52.6543 23.52C52.3663 25.152 52.2223 27.472 52.2223 30.48C52.2223 33.456 52.3663 35.76 52.6543 37.392C52.9743 39.024 53.4703 40.16 54.1423 40.8C54.8463 41.44 55.7583 41.76 56.8783 41.76ZM78.2346 42.72C76.6666 42.72 75.2586 42.528 74.0106 42.144C72.7626 41.792 71.6106 41.344 70.5546 40.8L70.6026 35.088H71.0826L72.7146 37.968C73.4186 39.248 74.1866 40.208 75.0186 40.848C75.8826 41.456 76.9706 41.76 78.2826 41.76C79.8186 41.76 81.0506 41.424 81.9786 40.752C82.9386 40.048 83.4186 39.12 83.4186 37.968C83.4186 36.912 83.0826 36.048 82.4106 35.376C81.7386 34.704 80.4906 34.096 78.6666 33.552L76.6506 32.928C74.6986 32.352 73.1626 31.456 72.0426 30.24C70.9226 29.024 70.3626 27.536 70.3626 25.776C70.3626 23.664 71.1946 21.872 72.8586 20.4C74.5226 18.928 76.9066 18.192 80.0106 18.192C81.2586 18.192 82.4266 18.336 83.5146 18.624C84.6346 18.88 85.7066 19.28 86.7306 19.824L86.4426 25.008H85.9626L84.2826 22.032C83.6746 20.976 83.0666 20.24 82.4586 19.824C81.8826 19.376 81.0026 19.152 79.8186 19.152C78.7306 19.152 77.7066 19.456 76.7466 20.064C75.7866 20.672 75.3066 21.536 75.3066 22.656C75.3066 23.744 75.7066 24.608 76.5066 25.248C77.3386 25.888 78.5546 26.48 80.1546 27.024L82.3146 27.648C84.6186 28.352 86.2666 29.328 87.2586 30.576C88.2506 31.792 88.7466 33.264 88.7466 34.992C88.7466 37.328 87.8186 39.2 85.9626 40.608C84.1386 42.016 81.5626 42.72 78.2346 42.72ZM98.1808 42.72C96.6128 42.72 95.2048 42.528 93.9568 42.144C92.7088 41.792 91.5568 41.344 90.5008 40.8L90.5488 35.088H91.0288L92.6608 37.968C93.3648 39.248 94.1328 40.208 94.9648 40.848C95.8288 41.456 96.9168 41.76 98.2288 41.76C99.7648 41.76 100.997 41.424 101.925 40.752C102.885 40.048 103.365 39.12 103.365 37.968C103.365 36.912 103.029 36.048 102.357 35.376C101.685 34.704 100.437 34.096 98.6128 33.552L96.5968 32.928C94.6448 32.352 93.1088 31.456 91.9888 30.24C90.8688 29.024 90.3088 27.536 90.3088 25.776C90.3088 23.664 91.1408 21.872 92.8048 20.4C94.4688 18.928 96.8528 18.192 99.9568 18.192C101.205 18.192 102.373 18.336 103.461 18.624C104.581 18.88 105.653 19.28 106.677 19.824L106.389 25.008H105.909L104.229 22.032C103.621 20.976 103.013 20.24 102.405 19.824C101.829 19.376 100.949 19.152 99.7648 19.152C98.6768 19.152 97.6528 19.456 96.6928 20.064C95.7328 20.672 95.2528 21.536 95.2528 22.656C95.2528 23.744 95.6528 24.608 96.4528 25.248C97.2848 25.888 98.5008 26.48 100.101 27.024L102.261 27.648C104.565 28.352 106.213 29.328 107.205 30.576C108.197 31.792 108.693 33.264 108.693 34.992C108.693 37.328 107.765 39.2 105.909 40.608C104.085 42.016 101.509 42.72 98.1808 42.72ZM115.442 15.696C114.354 15.696 113.426 15.36 112.658 14.688C111.922 13.984 111.554 13.104 111.554 12.048C111.554 10.96 111.922 10.08 112.658 9.408C113.426 8.736 114.354 8.4 115.442 8.4C116.53 8.4 117.442 8.736 118.178 9.408C118.914 10.08 119.282 10.96 119.282 12.048C119.282 13.104 118.914 13.984 118.178 14.688C117.442 15.36 116.53 15.696 115.442 15.696ZM109.778 42V41.52L110.45 41.328C111.09 41.136 111.522 40.848 111.746 40.464C112.002 40.08 112.13 39.568 112.13 38.928V23.904C112.13 23.232 112.002 22.736 111.746 22.416C111.522 22.064 111.09 21.824 110.45 21.696L109.778 21.552V21.072L118.562 18.24L119.042 18.72L118.898 25.536V38.976C118.898 39.616 119.01 40.128 119.234 40.512C119.49 40.896 119.922 41.184 120.53 41.376L121.01 41.52V42H109.778ZM134.224 18.192C136.304 18.192 138.08 18.624 139.552 19.488C141.024 20.32 142.144 21.472 142.912 22.944C143.712 24.384 144.112 26.032 144.112 27.888C144.112 28.24 144.096 28.608 144.064 28.992C144.032 29.344 143.968 29.664 143.872 29.952H129.568C129.6 33.408 130.208 35.904 131.392 37.44C132.608 38.944 134.4 39.696 136.768 39.696C138.368 39.696 139.664 39.44 140.656 38.928C141.648 38.416 142.576 37.664 143.44 36.672L143.92 37.104C142.928 38.864 141.6 40.24 139.936 41.232C138.304 42.224 136.336 42.72 134.032 42.72C131.76 42.72 129.744 42.24 127.984 41.28C126.224 40.288 124.848 38.88 123.856 37.056C122.864 35.232 122.368 33.056 122.368 30.528C122.368 27.904 122.944 25.68 124.096 23.856C125.248 22 126.72 20.592 128.512 19.632C130.336 18.672 132.24 18.192 134.224 18.192ZM134.08 19.152C133.152 19.152 132.352 19.44 131.68 20.016C131.04 20.56 130.528 21.552 130.144 22.992C129.792 24.4 129.6 26.4 129.568 28.992H137.776C138.096 25.504 137.968 22.992 137.392 21.456C136.816 19.92 135.712 19.152 134.08 19.152ZM145.544 42V41.52L146.264 41.328C146.904 41.136 147.336 40.848 147.56 40.464C147.816 40.08 147.944 39.584 147.944 38.976V23.952C147.944 23.248 147.816 22.736 147.56 22.416C147.336 22.064 146.904 21.824 146.264 21.696L145.544 21.504V21.024L153.8 18.24L154.28 18.72L154.712 22.848V23.232C155.16 22.336 155.736 21.52 156.44 20.784C157.176 20.016 157.976 19.392 158.84 18.912C159.736 18.432 160.616 18.192 161.48 18.192C162.696 18.192 163.624 18.528 164.264 19.2C164.904 19.872 165.224 20.72 165.224 21.744C165.224 22.832 164.904 23.68 164.264 24.288C163.656 24.864 162.92 25.152 162.056 25.152C160.712 25.152 159.528 24.48 158.504 23.136L158.408 23.04C158.088 22.592 157.72 22.352 157.304 22.32C156.888 22.256 156.504 22.448 156.152 22.896C155.832 23.184 155.56 23.536 155.336 23.952C155.144 24.336 154.952 24.784 154.76 25.296V38.688C154.76 39.968 155.32 40.768 156.44 41.088L157.976 41.52V42H145.544Z" fill="white"></path></g><defs><clipPath id="clip0_5378_2474"><rect width="165" height="52" fill="white" transform="translate(0.741211)"></rect></clipPath></defs></svg>