<svg xmlns="http://www.w3.org/2000/svg" width="207" height="90" viewBox="0 0 207 90" fill="none"><path d="M22.2963 63.08C18.2163 63.08 14.6163 62.24 11.4963 60.56C8.41625 58.84 5.99625 56.42 4.23625 53.3C2.51625 50.14 1.65625 46.42 1.65625 42.14C1.65625 37.98 2.51625 34.34 4.23625 31.22C5.95625 28.1 8.43625 25.68 11.6763 23.96C14.9563 22.2 18.9163 21.32 23.5563 21.32C25.6763 21.32 27.6363 21.56 29.4363 22.04C31.2763 22.52 33.0163 23.22 34.6563 24.14L34.8963 32.54H34.2963L30.9363 26.3C30.4163 25.3 29.9363 24.58 29.4963 24.14C29.0563 23.7 28.4963 23.36 27.8163 23.12C27.1763 22.92 26.5763 22.78 26.0163 22.7C25.4963 22.58 24.7963 22.52 23.9163 22.52C21.4363 22.52 19.2363 23.18 17.3163 24.5C15.4363 25.82 13.9763 27.92 12.9363 30.8C11.8963 33.68 11.3763 37.46 11.3763 42.14C11.3763 46.78 11.8563 50.56 12.8163 53.48C13.8163 56.4 15.2163 58.54 17.0163 59.9C18.8163 61.22 20.8963 61.88 23.2563 61.88C23.6163 61.88 23.9563 61.86 24.2763 61.82C24.6363 61.74 24.9763 61.66 25.2963 61.58C26.0563 61.46 26.5563 61.14 26.7963 60.62C27.0363 60.1 27.1563 59.48 27.1563 58.76V46.88C27.1563 45.32 26.3563 44.36 24.7563 44L21.9963 43.28V42.68H38.9163V43.28L38.0763 43.52C36.5563 44 35.7963 45 35.7963 46.52V59.54C33.7163 60.7 31.5963 61.58 29.4363 62.18C27.3163 62.78 24.9363 63.08 22.2963 63.08ZM39.6597 62V61.4L40.3797 61.16C41.8197 60.68 42.5397 59.68 42.5397 58.16V26.06C42.5397 25.26 42.3797 24.66 42.0597 24.26C41.7397 23.82 41.1797 23.5 40.3797 23.3L39.5997 23.12V22.52L50.5797 19.94L51.2997 20.48L51.0597 28.88V49.4C51.0597 50.88 51.0597 52.36 51.0597 53.84C51.0997 55.28 51.1197 56.72 51.1197 58.16C51.1197 58.96 51.2797 59.62 51.5997 60.14C51.9197 60.62 52.4597 60.98 53.2197 61.22L53.9997 61.4V62H39.6597ZM70.6277 62.9C67.5877 62.9 64.9477 62.28 62.7077 61.04C60.4677 59.76 58.7277 57.96 57.4877 55.64C56.2877 53.32 55.6877 50.6 55.6877 47.48C55.6877 44.36 56.3277 41.66 57.6077 39.38C58.9277 37.1 60.7077 35.34 62.9477 34.1C65.2277 32.86 67.7877 32.24 70.6277 32.24C73.4677 32.24 76.0077 32.86 78.2477 34.1C80.4877 35.3 82.2477 37.04 83.5277 39.32C84.8477 41.6 85.5077 44.32 85.5077 47.48C85.5077 50.64 84.8877 53.38 83.6477 55.7C82.4477 57.98 80.7277 59.76 78.4877 61.04C76.2877 62.28 73.6677 62.9 70.6277 62.9ZM70.6277 61.7C72.0277 61.7 73.1477 61.3 73.9877 60.5C74.8277 59.7 75.4277 58.28 75.7877 56.24C76.1877 54.2 76.3877 51.32 76.3877 47.6C76.3877 43.84 76.1877 40.94 75.7877 38.9C75.4277 36.86 74.8277 35.44 73.9877 34.64C73.1477 33.84 72.0277 33.44 70.6277 33.44C69.2277 33.44 68.0877 33.84 67.2077 34.64C66.3677 35.44 65.7477 36.86 65.3477 38.9C64.9877 40.94 64.8077 43.84 64.8077 47.6C64.8077 51.32 64.9877 54.2 65.3477 56.24C65.7477 58.28 66.3677 59.7 67.2077 60.5C68.0877 61.3 69.2277 61.7 70.6277 61.7ZM97.323 62.9C95.363 62.9 93.603 62.66 92.043 62.18C90.483 61.74 89.043 61.18 87.723 60.5L87.783 53.36H88.383L90.423 56.96C91.303 58.56 92.263 59.76 93.303 60.56C94.383 61.32 95.743 61.7 97.383 61.7C99.303 61.7 100.843 61.28 102.003 60.44C103.203 59.56 103.803 58.4 103.803 56.96C103.803 55.64 103.383 54.56 102.543 53.72C101.703 52.88 100.143 52.12 97.863 51.44L95.343 50.66C92.903 49.94 90.983 48.82 89.583 47.3C88.183 45.78 87.483 43.92 87.483 41.72C87.483 39.08 88.523 36.84 90.603 35C92.683 33.16 95.663 32.24 99.543 32.24C101.103 32.24 102.563 32.42 103.923 32.78C105.323 33.1 106.663 33.6 107.943 34.28L107.583 40.76H106.983L104.883 37.04C104.123 35.72 103.363 34.8 102.603 34.28C101.883 33.72 100.783 33.44 99.303 33.44C97.943 33.44 96.663 33.82 95.463 34.58C94.263 35.34 93.663 36.42 93.663 37.82C93.663 39.18 94.163 40.26 95.163 41.06C96.203 41.86 97.723 42.6 99.723 43.28L102.423 44.06C105.303 44.94 107.363 46.16 108.603 47.72C109.843 49.24 110.463 51.08 110.463 53.24C110.463 56.16 109.303 58.5 106.983 60.26C104.703 62.02 101.483 62.9 97.323 62.9ZM122.256 62.9C120.296 62.9 118.536 62.66 116.976 62.18C115.416 61.74 113.976 61.18 112.656 60.5L112.716 53.36H113.316L115.356 56.96C116.236 58.56 117.196 59.76 118.236 60.56C119.316 61.32 120.676 61.7 122.316 61.7C124.236 61.7 125.776 61.28 126.936 60.44C128.136 59.56 128.736 58.4 128.736 56.96C128.736 55.64 128.316 54.56 127.476 53.72C126.636 52.88 125.076 52.12 122.796 51.44L120.276 50.66C117.836 49.94 115.916 48.82 114.516 47.3C113.116 45.78 112.416 43.92 112.416 41.72C112.416 39.08 113.456 36.84 115.536 35C117.616 33.16 120.596 32.24 124.476 32.24C126.036 32.24 127.496 32.42 128.856 32.78C130.256 33.1 131.596 33.6 132.876 34.28L132.516 40.76H131.916L129.816 37.04C129.056 35.72 128.296 34.8 127.536 34.28C126.816 33.72 125.716 33.44 124.236 33.44C122.876 33.44 121.596 33.82 120.396 34.58C119.196 35.34 118.596 36.42 118.596 37.82C118.596 39.18 119.096 40.26 120.096 41.06C121.136 41.86 122.656 42.6 124.656 43.28L127.356 44.06C130.236 44.94 132.296 46.16 133.536 47.72C134.776 49.24 135.396 51.08 135.396 53.24C135.396 56.16 134.236 58.5 131.916 60.26C129.636 62.02 126.416 62.9 122.256 62.9ZM143.833 29.12C142.473 29.12 141.313 28.7 140.353 27.86C139.433 26.98 138.973 25.88 138.973 24.56C138.973 23.2 139.433 22.1 140.353 21.26C141.313 20.42 142.473 20 143.833 20C145.193 20 146.333 20.42 147.253 21.26C148.173 22.1 148.633 23.2 148.633 24.56C148.633 25.88 148.173 26.98 147.253 27.86C146.333 28.7 145.193 29.12 143.833 29.12ZM136.753 62V61.4L137.593 61.16C138.393 60.92 138.933 60.56 139.213 60.08C139.533 59.6 139.693 58.96 139.693 58.16V39.38C139.693 38.54 139.533 37.92 139.213 37.52C138.933 37.08 138.393 36.78 137.593 36.62L136.753 36.44V35.84L147.733 32.3L148.333 32.9L148.153 41.42V58.22C148.153 59.02 148.293 59.66 148.573 60.14C148.893 60.62 149.433 60.98 150.193 61.22L150.793 61.4V62H136.753ZM167.309 32.24C169.909 32.24 172.129 32.78 173.969 33.86C175.809 34.9 177.209 36.34 178.169 38.18C179.169 39.98 179.669 42.04 179.669 44.36C179.669 44.8 179.649 45.26 179.609 45.74C179.569 46.18 179.489 46.58 179.369 46.94H161.489C161.529 51.26 162.289 54.38 163.769 56.3C165.289 58.18 167.529 59.12 170.489 59.12C172.489 59.12 174.109 58.8 175.349 58.16C176.589 57.52 177.749 56.58 178.829 55.34L179.429 55.88C178.189 58.08 176.529 59.8 174.449 61.04C172.409 62.28 169.949 62.9 167.069 62.9C164.229 62.9 161.709 62.3 159.509 61.1C157.309 59.86 155.589 58.1 154.349 55.82C153.109 53.54 152.489 50.82 152.489 47.66C152.489 44.38 153.209 41.6 154.649 39.32C156.089 37 157.929 35.24 160.169 34.04C162.449 32.84 164.829 32.24 167.309 32.24ZM167.129 33.44C165.969 33.44 164.969 33.8 164.129 34.52C163.329 35.2 162.689 36.44 162.209 38.24C161.769 40 161.529 42.5 161.489 45.74H171.749C172.149 41.38 171.989 38.24 171.269 36.32C170.549 34.4 169.169 33.44 167.129 33.44ZM181.459 62V61.4L182.359 61.16C183.159 60.92 183.699 60.56 183.979 60.08C184.299 59.6 184.459 58.98 184.459 58.22V39.44C184.459 38.56 184.299 37.92 183.979 37.52C183.699 37.08 183.159 36.78 182.359 36.62L181.459 36.38V35.78L191.779 32.3L192.379 32.9L192.919 38.06V38.54C193.479 37.42 194.199 36.4 195.079 35.48C195.999 34.52 196.999 33.74 198.079 33.14C199.199 32.54 200.299 32.24 201.379 32.24C202.899 32.24 204.059 32.66 204.859 33.5C205.659 34.34 206.059 35.4 206.059 36.68C206.059 38.04 205.659 39.1 204.859 39.86C204.099 40.58 203.179 40.94 202.099 40.94C200.419 40.94 198.939 40.1 197.659 38.42L197.539 38.3C197.139 37.74 196.679 37.44 196.159 37.4C195.639 37.32 195.159 37.56 194.719 38.12C194.319 38.48 193.979 38.92 193.699 39.44C193.459 39.92 193.219 40.48 192.979 41.12V57.86C192.979 59.46 193.679 60.46 195.079 60.86L196.999 61.4V62H181.459Z" fill="white"></path></svg>