<svg xmlns="http://www.w3.org/2000/svg" width="165" height="52" viewBox="0 0 165 52" fill="none"><g clip-path="url(#clip0_5378_5723)"><path d="M17.472 42.864C14.208 42.864 11.328 42.192 8.832 40.848C6.368 39.472 4.432 37.536 3.024 35.04C1.648 32.512 0.96 29.536 0.96 26.112C0.96 22.784 1.648 19.872 3.024 17.376C4.4 14.88 6.384 12.944 8.976 11.568C11.6 10.16 14.768 9.456 18.48 9.456C20.176 9.456 21.744 9.648 23.184 10.032C24.656 10.416 26.048 10.976 27.36 11.712L27.552 18.432H27.072L24.384 13.44C23.968 12.64 23.584 12.064 23.232 11.712C22.88 11.36 22.432 11.088 21.888 10.896C21.376 10.736 20.896 10.624 20.448 10.56C20.032 10.464 19.472 10.416 18.768 10.416C16.784 10.416 15.024 10.944 13.488 12C11.984 13.056 10.816 14.736 9.984 17.04C9.152 19.344 8.736 22.368 8.736 26.112C8.736 29.824 9.12 32.848 9.888 35.184C10.688 37.52 11.808 39.232 13.248 40.32C14.688 41.376 16.352 41.904 18.24 41.904C18.528 41.904 18.8 41.888 19.056 41.856C19.344 41.792 19.616 41.728 19.872 41.664C20.48 41.568 20.88 41.312 21.072 40.896C21.264 40.48 21.36 39.984 21.36 39.408V29.904C21.36 28.656 20.72 27.888 19.44 27.6L17.232 27.024V26.544H30.768V27.024L30.096 27.216C28.88 27.6 28.272 28.4 28.272 29.616V40.032C26.608 40.96 24.912 41.664 23.184 42.144C21.488 42.624 19.584 42.864 17.472 42.864ZM31.3628 42V41.52L31.9388 41.328C33.0908 40.944 33.6668 40.144 33.6668 38.928V13.248C33.6668 12.608 33.5388 12.128 33.2828 11.808C33.0268 11.456 32.5788 11.2 31.9388 11.04L31.3148 10.896V10.416L40.0988 8.352L40.6748 8.784L40.4828 15.504V31.92C40.4828 33.104 40.4828 34.288 40.4828 35.472C40.5148 36.624 40.5308 37.776 40.5308 38.928C40.5308 39.568 40.6588 40.096 40.9148 40.512C41.1708 40.896 41.6028 41.184 42.2108 41.376L42.8348 41.52V42H31.3628ZM56.1371 42.72C53.7051 42.72 51.5931 42.224 49.8011 41.232C48.0091 40.208 46.6171 38.768 45.6251 36.912C44.6651 35.056 44.1851 32.88 44.1851 30.384C44.1851 27.888 44.6971 25.728 45.7211 23.904C46.7771 22.08 48.2011 20.672 49.9931 19.68C51.8171 18.688 53.8651 18.192 56.1371 18.192C58.4091 18.192 60.4411 18.688 62.2331 19.68C64.0251 20.64 65.4331 22.032 66.4571 23.856C67.5131 25.68 68.0411 27.856 68.0411 30.384C68.0411 32.912 67.5451 35.104 66.5531 36.96C65.5931 38.784 64.2171 40.208 62.4251 41.232C60.6651 42.224 58.5691 42.72 56.1371 42.72ZM56.1371 41.76C57.2571 41.76 58.1531 41.44 58.8251 40.8C59.4971 40.16 59.9771 39.024 60.2651 37.392C60.5851 35.76 60.7451 33.456 60.7451 30.48C60.7451 27.472 60.5851 25.152 60.2651 23.52C59.9771 21.888 59.4971 20.752 58.8251 20.112C58.1531 19.472 57.2571 19.152 56.1371 19.152C55.0171 19.152 54.1051 19.472 53.4011 20.112C52.7291 20.752 52.2331 21.888 51.9131 23.52C51.6251 25.152 51.4811 27.472 51.4811 30.48C51.4811 33.456 51.6251 35.76 51.9131 37.392C52.2331 39.024 52.7291 40.16 53.4011 40.8C54.1051 41.44 55.0171 41.76 56.1371 41.76ZM77.4934 42.72C75.9254 42.72 74.5174 42.528 73.2694 42.144C72.0214 41.792 70.8694 41.344 69.8134 40.8L69.8614 35.088H70.3414L71.9734 37.968C72.6774 39.248 73.4454 40.208 74.2774 40.848C75.1414 41.456 76.2294 41.76 77.5414 41.76C79.0774 41.76 80.3094 41.424 81.2374 40.752C82.1974 40.048 82.6774 39.12 82.6774 37.968C82.6774 36.912 82.3414 36.048 81.6694 35.376C80.9974 34.704 79.7494 34.096 77.9254 33.552L75.9094 32.928C73.9574 32.352 72.4214 31.456 71.3014 30.24C70.1814 29.024 69.6214 27.536 69.6214 25.776C69.6214 23.664 70.4534 21.872 72.1174 20.4C73.7814 18.928 76.1654 18.192 79.2694 18.192C80.5174 18.192 81.6854 18.336 82.7734 18.624C83.8934 18.88 84.9654 19.28 85.9894 19.824L85.7014 25.008H85.2214L83.5414 22.032C82.9334 20.976 82.3254 20.24 81.7174 19.824C81.1414 19.376 80.2614 19.152 79.0774 19.152C77.9894 19.152 76.9654 19.456 76.0054 20.064C75.0454 20.672 74.5654 21.536 74.5654 22.656C74.5654 23.744 74.9654 24.608 75.7654 25.248C76.5974 25.888 77.8134 26.48 79.4134 27.024L81.5734 27.648C83.8774 28.352 85.5254 29.328 86.5174 30.576C87.5094 31.792 88.0054 33.264 88.0054 34.992C88.0054 37.328 87.0774 39.2 85.2214 40.608C83.3974 42.016 80.8214 42.72 77.4934 42.72ZM97.4396 42.72C95.8716 42.72 94.4636 42.528 93.2156 42.144C91.9676 41.792 90.8156 41.344 89.7596 40.8L89.8076 35.088H90.2876L91.9196 37.968C92.6236 39.248 93.3916 40.208 94.2236 40.848C95.0876 41.456 96.1756 41.76 97.4876 41.76C99.0236 41.76 100.256 41.424 101.184 40.752C102.144 40.048 102.624 39.12 102.624 37.968C102.624 36.912 102.288 36.048 101.616 35.376C100.944 34.704 99.6956 34.096 97.8716 33.552L95.8556 32.928C93.9036 32.352 92.3676 31.456 91.2476 30.24C90.1276 29.024 89.5676 27.536 89.5676 25.776C89.5676 23.664 90.3996 21.872 92.0636 20.4C93.7276 18.928 96.1116 18.192 99.2156 18.192C100.464 18.192 101.632 18.336 102.72 18.624C103.84 18.88 104.912 19.28 105.936 19.824L105.648 25.008H105.168L103.488 22.032C102.88 20.976 102.272 20.24 101.664 19.824C101.088 19.376 100.208 19.152 99.0236 19.152C97.9356 19.152 96.9116 19.456 95.9516 20.064C94.9916 20.672 94.5116 21.536 94.5116 22.656C94.5116 23.744 94.9116 24.608 95.7116 25.248C96.5436 25.888 97.7596 26.48 99.3596 27.024L101.52 27.648C103.824 28.352 105.472 29.328 106.464 30.576C107.456 31.792 107.952 33.264 107.952 34.992C107.952 37.328 107.024 39.2 105.168 40.608C103.344 42.016 100.768 42.72 97.4396 42.72ZM114.701 15.696C113.613 15.696 112.685 15.36 111.917 14.688C111.181 13.984 110.813 13.104 110.813 12.048C110.813 10.96 111.181 10.08 111.917 9.408C112.685 8.736 113.613 8.4 114.701 8.4C115.789 8.4 116.701 8.736 117.437 9.408C118.173 10.08 118.541 10.96 118.541 12.048C118.541 13.104 118.173 13.984 117.437 14.688C116.701 15.36 115.789 15.696 114.701 15.696ZM109.037 42V41.52L109.709 41.328C110.349 41.136 110.781 40.848 111.005 40.464C111.261 40.08 111.389 39.568 111.389 38.928V23.904C111.389 23.232 111.261 22.736 111.005 22.416C110.781 22.064 110.349 21.824 109.709 21.696L109.037 21.552V21.072L117.821 18.24L118.301 18.72L118.157 25.536V38.976C118.157 39.616 118.269 40.128 118.493 40.512C118.749 40.896 119.181 41.184 119.789 41.376L120.269 41.52V42H109.037ZM133.482 18.192C135.562 18.192 137.338 18.624 138.81 19.488C140.282 20.32 141.402 21.472 142.17 22.944C142.97 24.384 143.37 26.032 143.37 27.888C143.37 28.24 143.354 28.608 143.322 28.992C143.29 29.344 143.226 29.664 143.13 29.952H128.826C128.858 33.408 129.466 35.904 130.65 37.44C131.866 38.944 133.658 39.696 136.026 39.696C137.626 39.696 138.922 39.44 139.914 38.928C140.906 38.416 141.834 37.664 142.698 36.672L143.178 37.104C142.186 38.864 140.858 40.24 139.194 41.232C137.562 42.224 135.594 42.72 133.29 42.72C131.018 42.72 129.002 42.24 127.242 41.28C125.482 40.288 124.106 38.88 123.114 37.056C122.122 35.232 121.626 33.056 121.626 30.528C121.626 27.904 122.202 25.68 123.354 23.856C124.506 22 125.978 20.592 127.77 19.632C129.594 18.672 131.498 18.192 133.482 18.192ZM133.338 19.152C132.41 19.152 131.61 19.44 130.938 20.016C130.298 20.56 129.786 21.552 129.402 22.992C129.05 24.4 128.858 26.4 128.826 28.992H137.034C137.354 25.504 137.226 22.992 136.65 21.456C136.074 19.92 134.97 19.152 133.338 19.152ZM144.802 42V41.52L145.522 41.328C146.162 41.136 146.594 40.848 146.818 40.464C147.074 40.08 147.202 39.584 147.202 38.976V23.952C147.202 23.248 147.074 22.736 146.818 22.416C146.594 22.064 146.162 21.824 145.522 21.696L144.802 21.504V21.024L153.058 18.24L153.538 18.72L153.97 22.848V23.232C154.418 22.336 154.994 21.52 155.698 20.784C156.434 20.016 157.234 19.392 158.098 18.912C158.994 18.432 159.874 18.192 160.739 18.192C161.954 18.192 162.882 18.528 163.523 19.2C164.162 19.872 164.482 20.72 164.482 21.744C164.482 22.832 164.162 23.68 163.523 24.288C162.915 24.864 162.179 25.152 161.314 25.152C159.97 25.152 158.786 24.48 157.762 23.136L157.666 23.04C157.346 22.592 156.978 22.352 156.562 22.32C156.146 22.256 155.762 22.448 155.41 22.896C155.09 23.184 154.818 23.536 154.594 23.952C154.402 24.336 154.21 24.784 154.018 25.296V38.688C154.018 39.968 154.578 40.768 155.698 41.088L157.234 41.52V42H144.802Z" fill="#1F1F1F"></path></g><defs><clipPath id="clip0_5378_5723"><rect width="165" height="52" fill="white"></rect></clipPath></defs></svg>